<?xml version="1.0" standalone="no"?>
<!DOCTYPE svg PUBLIC "-//W3C//DTD SVG 20010904//EN"
 "http://www.w3.org/TR/2001/REC-SVG-20010904/DTD/svg10.dtd">
<svg version="1.0" xmlns="http://www.w3.org/2000/svg"
 width="256.000000pt" height="256.000000pt" viewBox="0 0 256.000000 256.000000"
 preserveAspectRatio="xMidYMid meet">
<metadata>
Created by potrace 1.14, written by Peter Selinger 2001-2017
</metadata>
<g transform="translate(0.000000,256.000000) scale(0.100000,-0.100000)"
fill="#000000" stroke="none">
<path d="M0 2319 l0 -242 42 6 c24 4 111 18 193 31 83 13 152 22 154 20 7 -7
-29 -114 -55 -166 -43 -86 -127 -162 -212 -193 -20 -7 -30 -14 -22 -14 25 -1
97 36 141 71 23 18 69 67 102 108 33 41 57 66 53 55 -53 -131 -83 -263 -93
-418 -4 -64 -9 -94 -14 -82 -5 14 -8 15 -9 5 0 -12 -3 -11 -11 3 -10 17 -11
17 -23 1 -15 -20 -56 -29 -56 -13 0 8 -4 8 -13 1 -6 -6 -27 -9 -44 -8 -21 1
-34 -3 -38 -13 -5 -14 -7 -14 -15 -1 -7 11 -10 12 -10 2 0 -14 -24 -42 -35
-42 -3 0 -3 6 1 13 4 6 -2 3 -14 -7 l-22 -19 0 -709 0 -708 1280 0 1280 0 0
1280 0 1280 -1280 0 -1280 0 0 -241z m1538 -466 c-2 -9 -11 -17 -20 -19 -14
-2 -15 1 -5 17 15 23 30 25 25 2z m-288 -1 c0 -5 -11 -19 -26 -33 -22 -21 -24
-21 -18 -4 13 36 44 62 44 37z m220 -47 c-10 -12 -10 -15 0 -15 8 0 10 -3 7
-6 -4 -4 -13 -1 -22 6 -14 11 -13 14 2 25 22 17 30 11 13 -10z m-1041 -64 c6
-39 10 -109 10 -158 -1 -48 -4 -77 -6 -63 -3 14 -9 30 -15 35 -8 7 -9 6 -4 -2
4 -7 -3 -17 -15 -23 -17 -9 -20 -9 -14 0 5 8 3 11 -5 8 -7 -2 -14 -12 -16 -22
-1 -10 -6 -21 -10 -24 -3 -4 -4 29 -1 73 5 82 43 245 57 245 4 0 12 -31 19
-69z m979 19 c22 0 16 -6 -37 -36 -35 -19 -65 -34 -66 -32 -7 7 8 57 16 53 4
-3 14 1 21 9 7 9 19 13 26 11 8 -3 26 -5 40 -5z m52 -45 c45 -23 80 -60 80
-84 0 -12 5 -32 11 -43 9 -17 13 -18 20 -7 5 8 9 24 9 36 0 12 3 24 8 27 4 2
7 -16 7 -40 0 -55 13 -57 21 -4 6 39 24 66 24 37 0 -22 27 -41 33 -25 10 25 7
-54 -4 -98 -16 -63 -39 -59 -40 9 l-1 52 -15 -35 c-9 -21 -18 -82 -22 -150
l-6 -115 -62 -46 c-33 -26 -67 -49 -75 -52 -9 -4 -5 -12 15 -29 l28 -23 -35
-39 c-26 -27 -41 -36 -53 -32 -10 4 -80 41 -155 83 -111 61 -155 93 -233 165
-53 50 -94 93 -91 95 2 2 21 -6 43 -20 46 -29 89 -44 79 -28 -4 6 -13 11 -19
11 -7 0 -28 13 -47 29 -34 28 -34 28 -17 54 11 18 23 24 35 21 10 -4 13 -3 5
3 -8 6 -4 17 13 38 15 18 22 22 18 11 -6 -14 -4 -17 6 -11 10 6 12 -3 8 -45
-4 -36 -2 -47 4 -36 5 9 12 43 15 74 6 55 44 156 60 158 23 2 63 25 64 36 0
10 2 10 6 0 4 -10 9 -9 24 4 11 9 22 14 26 11 3 -4 12 -2 20 4 10 9 13 5 13
-24 0 -20 -5 -48 -10 -63 -6 -15 -8 -29 -6 -31 3 -3 10 14 17 37 11 36 20 45
68 70 65 34 73 35 111 15z m270 -130 c0 -26 -4 -33 -14 -29 -11 4 -12 12 -4
35 13 38 18 37 18 -6z m-1163 -27 c-3 -7 -5 -2 -5 12 0 14 2 19 5 13 2 -7 2
-19 0 -25z m-10 -50 c-3 -7 -5 -2 -5 12 0 14 2 19 5 13 2 -7 2 -19 0 -25z
m392 -9 c-19 -12 -56 -11 -64 1 -4 6 1 7 11 3 10 -4 15 -2 11 3 -4 7 6 9 25 6
21 -3 26 -7 17 -13z m732 -42 c-18 -18 -22 -2 -9 34 l13 34 3 -29 c2 -16 -1
-33 -7 -39z m-721 13 c-6 -11 -13 -20 -16 -20 -2 0 0 9 6 20 6 11 13 20 16 20
2 0 0 -9 -6 -20z m-29 -27 c13 -16 12 -17 -3 -4 -10 7 -18 15 -18 17 0 8 8 3
21 -13z"/>
<path d="M1040 1390 c0 -12 82 -50 108 -50 12 0 22 5 22 10 0 6 -10 10 -22 10
-13 0 -42 9 -65 20 -24 10 -43 15 -43 10z"/>
<path d="M1317 1299 c-47 -11 -106 -41 -91 -46 6 -2 35 5 63 17 28 11 61 20
71 20 11 0 20 5 20 10 0 12 -11 11 -63 -1z"/>
<path d="M1338 1203 c-20 -5 -24 -23 -5 -23 6 0 21 7 31 15 20 15 11 18 -26 8z"/>
</g>
</svg>
